<svg id="SvgjsSvg1032" width="288" height="288" xmlns="http://www.w3.org/2000/svg" version="1.1" xmlns:xlink="http://www.w3.org/1999/xlink" xmlns:svgjs="http://svgjs.com/svgjs"><defs id="SvgjsDefs1033"></defs><g id="SvgjsG1034"><svg xmlns="http://www.w3.org/2000/svg" xmlns:svgjs="http://svgjs.com/svgjs" xmlns:xlink="http://www.w3.org/1999/xlink" width="288" height="288"><svg xmlns="http://www.w3.org/2000/svg" width="288" height="288" enable-background="new 0 0 445.192 445.192" transform="translate(11.995 11.995) scale(.9167)" viewBox="0 0 445.192 445.192"><path fill="#40514e" d="M338.582 318.747c-35.074 0-66.073 17-85.511 43.12-19.425-26.12-50.439-43.12-85.498-43.12-58.881 0-106.61 47.736-106.61 106.618 0 1.07.016 2.141.059 3.211.073 2.278 1.704 4.2 3.945 4.645 2.229.444 4.484-.722 5.417-2.803 16.656-37.115 53.872-62.98 97.189-62.98 35.06 0 66.073 16.999 85.498 43.12 19.437-26.122 50.437-43.12 85.511-43.12 43.303 0 80.533 25.865 97.19 62.98.933 2.075 3.188 3.24 5.416 2.795 2.242-.437 3.873-2.358 3.946-4.637.043-1.071.059-2.141.059-3.211C445.192 366.484 397.463 318.747 338.582 318.747zM149.621 217.519c15.127-20.355 39.269-33.59 66.583-33.59 33.735 0 62.725 20.15 75.699 49.052.728 1.624 2.475 2.526 4.223 2.185 1.745-.343 3.013-1.841 3.071-3.619.029-.829.043-1.667.043-2.505 0-45.856-37.172-83.029-83.036-83.029-27.314 0-51.456 13.235-66.583 33.577-15.143-20.341-39.284-33.577-66.599-33.577C37.172 146.013 0 183.186 0 229.042c0 .838.014 1.669.044 2.49.059 1.777 1.324 3.277 3.071 3.626 1.748.343 3.495-.561 4.223-2.185 12.973-28.902 41.963-49.045 75.685-49.045C110.337 183.929 134.479 197.164 149.621 217.519zM186.458 58.834c.917.182 1.833-.291 2.212-1.15 6.844-15.223 22.117-25.83 39.881-25.83 14.387 0 27.111 6.975 35.076 17.698 7.978-10.723 20.703-17.698 35.09-17.698 17.778 0 33.037 10.614 39.895 25.844.379.852 1.296 1.325 2.213 1.143.917-.175 1.602-.968 1.631-1.9 0-.437.016-.881.016-1.318 0-24.155-19.599-43.746-43.754-43.746-14.387 0-27.111 6.975-35.09 17.691-7.965-10.716-20.69-17.691-35.076-17.691-24.17 0-43.739 19.591-43.739 43.746 0 .437 0 .874.015 1.303C184.856 57.859 185.526 58.653 186.458 58.834z" class="color000 svgShape color696969"></path></svg></svg></g></svg>