<svg id="SvgjsSvg1016" width="288" height="288" xmlns="http://www.w3.org/2000/svg" version="1.1" xmlns:xlink="http://www.w3.org/1999/xlink" xmlns:svgjs="http://svgjs.com/svgjs"><defs id="SvgjsDefs1017"></defs><g id="SvgjsG1018"><svg xmlns="http://www.w3.org/2000/svg" width="288" height="288" version="1.0" viewBox="0 0 612 350"><g transform="matrix(.1 0 0 -.1 0 350)" fill="#40514e" class="color000 svgShape"><path d="M1995 2783 c-22 -20 -220 -201 -440 -402 -220 -201 -434 -397 -475-436 -41 -38 -225 -207 -408 -374 -182 -167 -332 -306 -332 -308 0 -3 12 5 28
15 15 11 259 189 542 395 283 207 516 372 518 368 1 -4 -22 -67 -52 -139 -30
-73 -53 -132 -51 -132 1 0 159 206 350 458 192 251 351 461 356 466 6 7 479
-418 479 -431 0 -3 -28 15 -62 40 -67 47 -317 219 -338 232 -11 7 586 -793
612 -820 10 -10 -2 18 -96 223 -31 68 -56 126 -56 130 0 3 24 -21 53 -53 99
-112 360 -400 384 -425 l25 -25 -12 25 c-17 33 -197 356 -222 398 -11 17 -17
32 -14 32 3 0 130 -104 283 -232 369 -308 373 -311 373 -305 0 3 -78 97 -174
209 -95 111 -172 204 -171 206 2 2 86 -45 187 -103 100 -59 188 -110 193 -113
6 -2 -41 47 -103 110 l-112 114 330 244 c182 135 336 245 344 245 8 0 72 -54
143 -120 70 -67 152 -143 181 -170 30 -27 50 -51 45 -52 -4 -2 -75 10 -158 27
-82 16 -151 28 -152 26 -1 -1 121 -55 272 -119 l275 -116 132 -108 c73 -59
179 -144 236 -190 56 -46 102 -81 102 -78 0 3 -65 83 -144 178 -80 94 -144
173 -142 174 2 2 238 -91 526 -207 288 -115 525 -208 526 -207 3 3 -264 159
-856 503 -172 100 -176 101 -255 108 -143 12 -151 15 -228 74 -39 31 -151 116
-247 190 -96 75 -191 148 -210 163 l-36 27 -94 -60 c-52 -34 -229 -148 -393
-255 -176 -114 -303 -191 -310 -186 -7 4 -254 189 -550 411 -296 222 -544 405
-550 407 -7 3 -30 -12 -52 -32z" fill="#40514e" class="color000 svgShape"></path><path d="M1880 2338c-69-121-155-274-192-339-37-66-65-119-63-119 3 0 283 331 372 439l21 26 24-20c12-12 65-59 116-104 51-46 94-82 96-80 2 2-43 83-100 179-58 96-112 190-121 208-9 17-19 32-22 32-3 0-62-100-131-222zM3745 2189c-168-150-240-217-205-192 42 29 314 205 347 224l38 22 84-42c46-23 84-41 86-39 2 2-36 44-84 95l-86 92-180-160zM1230 1635c-6-30-16-55-22-55-10 0-8-17 7-52 6-14 2-18-15-18-23 0-24-17-5-62 6-15 2-18-19-18-19 0-26-5-26-19 0-11 5-23 10-26 38-23-42-63-85-43-19 9-23 16-19 38 4 19 1 29-9 33-9 3-14 14-11 24 2 10-5 43-15 73l-19 55-7-42c-4-24-14-48-21-54-10-8-11-16-4-30 8-14 6-20-7-28-14-8-15-13-5-35 10-23 10-26-9-26-19 0-20-4-14-36 4-24 3-34-4-29-6 3-23-1-38-9-16-9-73-32-128-52-137-50-313-131-432-198-114-65-180-105-172-106 3 0 71 27 150 61 618 262 1113 373 1721 386 466 10 646-16 1453-212 608-148 737-176 975-214 507-80 872-40 1223 135 95 47 224 134 262 175l30 32-30-20c-111-73-306-160-445-198-115-30-135-32-125-7 4 9 10 29 13 45 4 24 1 27-23 27-22 0-26 3-20 18 4 9 10 29 13 45 4 23 1 27-18 27-16 0-20 4-16 15 3 8 9 21 12 29 3 7-1 20-8 27-8 8-20 40-27 71-14 57-31 69-31 23 0-13-5-27-10-30-6-3-7-17-4-31 5-18 2-24-11-24-18 0-18-21 0-62 5-14 2-18-14-18-29 0-37-25-17-55 21-32 20-35-9-35-33 0-42-23-21-55 21-32 20-35-6-35-12 0-30-8-41-18-20-16-20-16-12 3 19 49 18 65-5 65-19 0-21 4-16 23 13 42 11 52-10 55-20 3-21 6-11 33 9 22 9 32 0 37-6 4-14 28-18 55-9 57-22 61-31 10-3-21-13-48-20-60-8-13-12-33-8-47 4-16 1-25-11-30-13-5-16-14-11-40 6-29 3-34-15-39-22-6-22-15-4-59 6-16 0-18-57-18-63 0-217 16-250 26-15 4-16 9-7 27 10 18 8 24-14 41-23 19-24 23-11 40 19 27 18 43-6 49-16 4-18 11-13 41 3 22 2 36-5 36-5 0-13 23-17 50-9 62-22 64-31 5-3-26-13-53-21-61-12-11-13-21-5-37 8-18 5-26-15-42-16-14-27-36-32-70l-9-50-1 53c-1 45-4 55-21 59-25 7-25 18 1 54 28 40 18 67-27 71l-36 3 22 28c26 33 23 61-8 65-26 4-25 4-11 35 9 19 8 30-4 48-8 13-18 37-21 52-8 34-26 26-26-11 0-15-7-38-16-50-9-14-14-33-10-46 4-18 1-25-14-29-21-5-29-51-10-62 20-12 9-34-17-37-34-4-42-36-19-70 22-32 20-38-14-38-45 0-57-31-30-75 12-19 17-35 12-35-29 0-197 51-212 65-9 8-24 15-34 15-13 0-15 4-6 19 16 31 12 51-10 51-17 0-18 3-9 27 8 21 7 28-6 36-10 5-14 16-10 28 4 11 2 25-3 32-5 7-12 29-16 50-7 39-26 42-26 4 0-12-6-34-14-49-8-15-12-36-9-48 3-12 0-20-7-20-8 0-11-10-8-29 3-22 0-31-14-34-10-3-18-12-18-21 0-22-17-20-32 4-7 11-23 20-35 20-27 0-28 3-7 35 19 29 11 45-22 45-28 0-29 7-9 34 20 27 19 35-10 48-19 9-22 14-15 29 15 27 12 49-6 49-10 0-13 6-10 18 3 9-1 35-9 57-12 35-14 37-15 13 0-15-4-30-10-33-5-3-10-17-10-30 0-13-5-27-11-31-6-3-9-20-6-37 3-23 0-31-15-35-20-5-21-23-3-64 6-15 2-18-20-18-21 0-26-4-21-16 10-26-2-33-37-23-99 29-362 92-492 118-549 109-1054 119-1530 30-60-11-117-22-126-25-11-3-18 3-22 16-3 12-13 20-27 20-17 0-21 4-15 18 18 44 18 53-4 59-18 5-21 11-16 33 3 16 2 37-4 47-6 10-15 37-21 61-6 23-13 42-15 42-2 0-9-25-15-55z" fill="#40514e" class="color000 svgShape"></path><path d="M1490 1229c-345-38-665-118-935-233-121-52-155-73-79-50 98 30 453 114 585 138 191 35 464 64 664 71l170 5-117-24c-270-56-463-136-394-162 8-3 128 4 267 17 414 35 625 16 800-71 54-28 61-29 45-11-28 31-130 79-217 102-89 24-306 38-492 33-154-5-144 5 38 36 281 48 472 49 735 4 218-37 524-119 748-200 51-19 96-34 100-34 17 0-73 48-188 100-284 129-589 214-955 266-132 18-648 27-775 13zM3615 953c141-73 443-170 680-218 214-44 377-58 605-52 228 5 331 21 506 80 99 34 227 87 221 93-1 2-39-8-82-22-213-65-509-101-765-91-346 14-797 98-1129 212-93 31-99 31-36-2z" fill="#40514e" class="color000 svgShape"></path></g></svg></g></svg>